<?xml version="1.0" encoding="utf-8"?>
<!-- Generator: Adobe Illustrator 25.0.0, SVG Export Plug-In . SVG Version: 6.00 Build 0)  -->
<svg version="1.1" id="Layer_1" xmlns="http://www.w3.org/2000/svg" xmlns:xlink="http://www.w3.org/1999/xlink" x="0px" y="0px"
	 viewBox="0 0 232 68" style="enable-background:new 0 0 232 68;" xml:space="preserve">
<style type="text/css">
	.st0{fill:#0054A6;}
	.st1{fill:#4A4A4A;}
	.st2{font-family:'SegoePrint-Bold';}
	.st3{font-size:45.6033px;}
</style>
<path class="st0" d="M64.6,16.2C63,9.9,58.1,5,51.8,3.4C40,1.5,28,1.5,16.2,3.4C9.9,5,5,9.9,3.4,16.2C1.5,28,1.5,40,3.4,51.8
	C5,58.1,9.9,63,16.2,64.6c11.8,1.9,23.8,1.9,35.6,0C58.1,63,63,58.1,64.6,51.8C66.5,40,66.5,28,64.6,16.2z M33.3,36.3
	c-2.8,4.4-6.6,8.2-11.1,11c-1.5,0.9-3.3,0.9-4.8,0.1s-2.4-2.3-2.5-4c0-1.7,0.9-3.3,2.4-4.1c2.3-1.4,4.4-3.2,6.1-5.3
	c-1.8-2.1-3.8-3.8-6.1-5.3c-2.3-1.3-3-4.2-1.7-6.4s4.3-2.9,6.5-1.6c4.5,2.8,8.2,6.5,11.1,10.9C34.2,33,34.2,34.9,33.3,36.3z
	 M49.2,46H37.8c-2.1,0-3.8-1-3.8-3s1.7-3,3.8-3h11.4c2.1,0,3.8,1,3.8,3S51.3,46,49.2,46z"/>
<text transform="matrix(1.1045 0 0 1 93.1155 43.4464)" class="st1 st2 st3">peak</text>
</svg>
